<?xml version="1.0" encoding="utf-8"?>
<!-- Generator: Adobe Illustrator 16.0.3, SVG Export Plug-In . SVG Version: 6.00 Build 0)  -->
<!DOCTYPE svg PUBLIC "-//W3C//DTD SVG 1.1//EN" "http://www.w3.org/Graphics/SVG/1.1/DTD/svg11.dtd">
<svg version="1.1" id="Ebene_2" xmlns="http://www.w3.org/2000/svg" xmlns:xlink="http://www.w3.org/1999/xlink" x="0px" y="0px"
	 width="152.239px" height="36.15px" viewBox="0.6 -5.865 152.239 36.15" enable-background="new 0.6 -5.865 152.239 36.15"
	 xml:space="preserve">
<g>
	<g>
		<g>
			<path fill="#E30613" d="M47.1-5.865H5.792c-2.84,0-5.191,2.247-5.191,5.148v25.799c0,2.9,2.35,5.202,5.191,5.202H47.1
				c2.789,0,5.139-2.302,5.139-5.202V-0.717C52.24-3.618,49.891-5.865,47.1-5.865z"/>
			<path fill="#FFFFFF" d="M48.468,25.079c0,0.825-0.547,1.482-1.367,1.482H5.792c-0.819,0-1.42-0.655-1.42-1.482V-0.717
				c0-0.821,0.601-1.479,1.42-1.479H47.1c0.82,0,1.367,0.655,1.367,1.479V25.079z"/>
		</g>
		<g>
			<path fill="#E30613" d="M37.484,24.039h-9.18V0.379h9.618c4.536,0,6.993,1.863,6.993,6.3c0,2.3-1.912,3.941-3.986,4.982
				c2.898,0.82,4.863,2.575,4.863,5.53C45.791,22.015,41.746,24.039,37.484,24.039z M33.931,9.745h1.969
				c1.858,0,3.224-0.822,3.224-2.848c0-2.245-1.749-2.848-3.606-2.848h-1.585v5.696H33.931z M39.779,17.083
				c0-2.408-1.53-2.956-3.768-2.956h-2.08v6.079h2.022C37.978,20.206,39.779,19.548,39.779,17.083z"/>
			<path fill="#E30613" d="M16.392,24.039H7.706V0.379h8.688c6.119,0,9.396,3.834,9.396,11.72
				C25.79,18.946,23.604,23.989,16.392,24.039z M20.166,12.592c0-4.765-0.493-8.486-5.629-8.486h-1.149v16.1h2.02
				C18.415,20.206,20.166,17.796,20.166,12.592z"/>
		</g>
	</g>
	<path d="M102.672,3.98l-0.364,4.06c0,0,4.439,0,4.825,0c0,0.409,0,16.003,0,16.003h5.175c0,0,0-15.594,0-16.003
		c0.389,0,4.641,0,4.641,0V3.98H102.672z"/>
	<path d="M124.827,19.98c0.474-0.637,9.367-12.504,9.367-12.504V3.98h-14.468l-0.334,4.065c0,0,7.623,0,8.382,0
		c-0.474,0.631-9.417,12.586-9.417,12.586v3.411h16.292l0.301-4.064C134.95,19.98,125.59,19.98,124.827,19.98z"/>
	<path d="M77.823,3.98c0,0,0,9.858,0,10.966c-0.683-0.9-8.333-10.966-8.333-10.966h-4.34v20.063h4.39c0,0,0-11.012,0-12.127
		c0.69,0.905,9.229,12.127,9.229,12.127h3.444V3.98H77.823z"/>
	<path d="M91.744,19.978v-4.203c0.393,0,6.892,0,6.892,0v-3.879c0,0-6.499,0-6.892,0V8.047c0.396,0,8.125,0,8.125,0V3.98H86.573
		v20.063h14.318l0.357-4.064C101.249,19.978,92.142,19.978,91.744,19.978z"/>
	<path d="M143.339,19.978v-4.203c0.393,0,6.891,0,6.891,0v-3.879c0,0-6.498,0-6.891,0V8.047c0.394,0,8.727,0,8.727,0V3.98h-13.898
		v20.063h14.314l0.358-4.064C152.842,19.978,143.738,19.978,143.339,19.978z"/>
</g>
</svg>
